<svg width="1688" height="917" viewBox="0 0 1688 917" fill="none" xmlns="http://www.w3.org/2000/svg">
<path d="M0 816H1687.5" stroke="#FF0000" stroke-width="20"/>
<path d="M0 876H1687.5" stroke="#FF0000" stroke-width="20" stroke-dasharray="123 123"/>
<path d="M1271.34 737C1275.19 743.667 1284.81 743.667 1288.66 737L1596.97 203C1600.81 196.333 1596 188 1588.31 188H971.695C963.997 188 959.186 196.333 963.035 203L1271.34 737Z" fill="#FF0000"/>
<path d="M1276.88 525.24H1365.94M1397 525.24H1365.94M1365.94 525.24L1369.31 495.678L1361.82 462.374L1343.11 441.793L1322.16 423.457L1302.33 408.863L1289.98 391.275V371.068L1302.33 347.119L1322.16 329.532L1349.1 309.699L1364.44 284.627L1369.31 256.936L1364.44 227M1364.44 227H1396.63M1364.44 227H1278" stroke="white" stroke-width="10"/>
<path d="M1282.12 525.24H1193.06M1162 525.24H1193.06M1193.06 525.24L1189.69 495.678L1197.18 462.374L1215.89 441.793L1236.84 423.457L1256.67 408.863L1269.02 391.275V371.068L1256.67 347.119L1236.84 329.532L1209.9 309.699L1194.56 284.627L1189.69 256.936L1194.56 227M1194.56 227H1162.37M1194.56 227H1281" stroke="white" stroke-width="10"/>
<path d="M809.34 180C813.189 173.333 822.811 173.333 826.66 180L1134.97 714C1138.81 720.667 1134 729 1126.31 729H509.695C501.997 729 497.186 720.667 501.035 714L809.34 180Z" fill="white"/>
<path d="M765.5 676V598.5L717 595L753.5 536L777.5 543.5L743 474L655 479.5L684 500L658.5 560.5L697 632L733 676H765.5Z" stroke="black" stroke-width="10"/>
<path d="M754 386.5L731 425L793 463.5L820 418L854 476L825 494.5L910 505L949 418L919 433.5L879.5 380H804L754 386.5Z" stroke="black" stroke-width="10"/>
<path d="M982 554L957 505L890 541L918.5 596H850.5V561.5L791 626L850.5 702V675H915.5L961.5 596L982 554Z" stroke="black" stroke-width="10"/>
<path d="M367.34 737C371.189 743.667 380.811 743.667 384.66 737L692.965 203C696.814 196.333 692.003 188 684.305 188H67.6949C59.9969 188 55.1857 196.333 59.0347 203L367.34 737Z" fill="#FF0000"/>
<path d="M462.497 497.461V435.231C462.497 429.957 463.887 424.777 466.527 420.212L475.146 405.308C476.2 403.486 477.059 401.559 477.709 399.557L486.026 373.949C487.327 369.943 487.77 365.707 487.326 361.518L484.404 333.97C484.037 330.502 483.067 327.125 481.539 323.991L469.468 299.224C467.61 295.411 464.964 292.036 461.706 289.321L438.971 270.375C436.097 267.98 432.801 266.144 429.252 264.961L403.321 256.317C398.753 254.795 393.886 254.394 389.131 255.149L363.734 259.18C360.601 259.677 357.566 260.669 354.743 262.117L330.027 274.797C326.641 276.534 323.616 278.9 321.115 281.768L304.29 301.054C301.842 303.861 299.937 307.1 298.674 310.605L290.033 334.584C289.164 336.997 288.607 339.511 288.377 342.065L286.447 363.513C286.187 366.404 285.508 369.242 284.433 371.938L271.709 403.837C268.181 412.683 273.363 422.594 282.642 424.742V424.742C288.972 426.208 293.723 431.456 294.553 437.901L297.213 458.544C299.141 473.507 311.881 484.71 326.967 484.71H343.372C353.168 484.71 362.347 479.927 367.96 471.898L380.355 454.166" stroke="black" stroke-width="15"/>
<path d="M402.003 421.25V401.649C402.003 395.889 399.255 390.475 394.607 387.074V387.074C391.513 384.81 387.777 383.589 383.943 383.589H380.029C369.875 383.589 360.41 378.453 354.876 369.939L352.183 365.797M352.183 365.797L371.755 346.818M352.183 365.797L340.701 361.827C332.789 359.092 326.581 352.862 323.873 344.941L322.987 342.348C321.178 337.054 321.59 331.253 324.129 326.268V326.268C326.705 321.213 331.244 317.437 336.684 315.825L344.177 313.605L352.183 310.047M352.183 310.047L355.149 318.35M352.183 310.047L359.168 299.3C362.164 294.692 366.369 290.994 371.323 288.613L373.007 287.803C377.063 285.853 381.506 284.84 386.006 284.84H390.055C397.62 284.84 404.789 288.224 409.598 294.064V294.064C412.767 297.911 417.001 300.738 421.77 302.19L422.363 302.37C426.142 303.52 429.627 305.474 432.579 308.098L439.554 314.298C442.532 316.945 444.699 320.38 445.807 324.207L446.961 328.192C447.231 329.127 447.252 330.116 447.021 331.061L445.564 337.023C444.997 339.34 447.422 341.246 449.54 340.148V340.148C450.945 339.42 452.674 340.011 453.339 341.447L457.447 350.322C458.783 353.208 458.933 356.502 457.863 359.497L455.822 365.211C453.492 371.736 448.212 376.774 441.585 378.796V378.796C437.065 380.175 432.22 380.055 427.773 378.455L427.395 378.318C422.474 376.547 418.3 373.159 415.554 368.708L411.195 361.645M411.195 361.645L423.947 338.811M411.195 361.645L392.513 352.156" stroke="black" stroke-width="15"/>
<path d="M404.078 330.508V330.508C399.49 320.312 388.08 315.066 377.354 318.221L375.907 318.646" stroke="black" stroke-width="15"/>
</svg>
