<svg width="1812" height="576" viewBox="0 0 1812 576" fill="none" xmlns="http://www.w3.org/2000/svg">
<rect x="1235.87" width="575.229" height="575.229" rx="37.5" fill="#FF0000"/>
<rect width="575.229" height="575.229" rx="37.5" fill="black"/>
<rect x="617.934" width="575.229" height="575.229" rx="37.5" fill="white"/>
<path d="M169.865 281.646H162.541L162.502 277.153H168.439C169.507 277.153 170.36 277.036 170.998 276.802C171.636 276.554 172.098 276.196 172.385 275.728C172.684 275.259 172.834 274.673 172.834 273.97C172.834 273.162 172.684 272.511 172.385 272.017C172.085 271.522 171.61 271.164 170.959 270.942C170.321 270.708 169.494 270.591 168.479 270.591H165.119V293.735H158.264V265.298H168.479C170.236 265.298 171.805 265.461 173.186 265.786C174.566 266.099 175.738 266.58 176.701 267.231C177.678 267.882 178.42 268.703 178.928 269.692C179.436 270.669 179.689 271.821 179.689 273.149C179.689 274.308 179.442 275.396 178.947 276.411C178.452 277.427 177.626 278.254 176.467 278.892C175.321 279.517 173.752 279.842 171.76 279.868L169.865 281.646ZM169.592 293.735H160.881L163.225 288.462H169.592C170.529 288.462 171.278 288.319 171.838 288.032C172.411 287.733 172.821 287.342 173.068 286.86C173.329 286.366 173.459 285.819 173.459 285.22C173.459 284.491 173.335 283.859 173.088 283.325C172.854 282.791 172.476 282.381 171.955 282.095C171.434 281.795 170.738 281.646 169.865 281.646H164.104L164.143 277.153H171.037L172.639 278.95C174.54 278.872 176.044 279.139 177.15 279.751C178.27 280.363 179.071 281.17 179.553 282.173C180.035 283.175 180.275 284.224 180.275 285.317C180.275 287.179 179.872 288.735 179.064 289.985C178.27 291.235 177.079 292.173 175.49 292.798C173.902 293.423 171.936 293.735 169.592 293.735ZM199.206 294.126C197.487 294.126 195.951 293.859 194.596 293.325C193.242 292.778 192.096 292.03 191.159 291.079C190.235 290.129 189.525 289.035 189.03 287.798C188.548 286.561 188.307 285.252 188.307 283.872V283.13C188.307 281.58 188.522 280.148 188.952 278.833C189.382 277.505 190.02 276.346 190.866 275.356C191.712 274.367 192.774 273.599 194.05 273.052C195.326 272.492 196.81 272.212 198.503 272.212C200 272.212 201.341 272.453 202.526 272.935C203.711 273.416 204.714 274.106 205.534 275.005C206.367 275.903 206.999 276.991 207.429 278.267C207.871 279.543 208.093 280.975 208.093 282.563V285.239H190.827V281.118H201.667V280.61C201.68 279.907 201.556 279.308 201.296 278.813C201.048 278.319 200.684 277.941 200.202 277.681C199.72 277.42 199.134 277.29 198.444 277.29C197.728 277.29 197.136 277.446 196.667 277.759C196.211 278.071 195.853 278.501 195.593 279.048C195.345 279.582 195.169 280.2 195.065 280.903C194.961 281.606 194.909 282.349 194.909 283.13V283.872C194.909 284.653 195.013 285.363 195.221 286.001C195.443 286.639 195.755 287.186 196.159 287.642C196.576 288.084 197.07 288.429 197.643 288.677C198.229 288.924 198.893 289.048 199.636 289.048C200.534 289.048 201.419 288.879 202.292 288.54C203.164 288.201 203.913 287.642 204.538 286.86L207.526 290.415C207.096 291.027 206.485 291.619 205.69 292.192C204.909 292.765 203.971 293.234 202.878 293.599C201.784 293.95 200.56 294.126 199.206 294.126ZM242.106 288.423V279.712C242.106 279.113 242.021 278.599 241.852 278.169C241.683 277.739 241.416 277.407 241.051 277.173C240.687 276.925 240.198 276.802 239.586 276.802C239.092 276.802 238.668 276.886 238.317 277.056C237.965 277.225 237.698 277.479 237.516 277.817C237.334 278.156 237.243 278.586 237.243 279.106H230.661C230.661 278.13 230.875 277.225 231.305 276.392C231.748 275.545 232.373 274.81 233.18 274.185C234 273.56 234.977 273.078 236.11 272.739C237.256 272.388 238.532 272.212 239.938 272.212C241.618 272.212 243.115 272.492 244.43 273.052C245.758 273.612 246.806 274.451 247.575 275.571C248.343 276.678 248.727 278.071 248.727 279.751V288.403C248.727 289.784 248.805 290.832 248.961 291.548C249.118 292.251 249.339 292.869 249.625 293.403V293.735H243.024C242.711 293.084 242.477 292.29 242.321 291.353C242.177 290.402 242.106 289.425 242.106 288.423ZM242.907 280.825L242.946 284.341H240.036C239.424 284.341 238.903 284.425 238.473 284.595C238.056 284.764 237.718 284.998 237.457 285.298C237.21 285.584 237.028 285.91 236.911 286.274C236.806 286.639 236.754 287.023 236.754 287.427C236.754 287.817 236.845 288.169 237.028 288.481C237.223 288.781 237.483 289.015 237.809 289.185C238.135 289.354 238.499 289.438 238.903 289.438C239.632 289.438 240.25 289.302 240.758 289.028C241.279 288.742 241.676 288.397 241.95 287.993C242.223 287.59 242.36 287.212 242.36 286.86L243.805 289.556C243.545 290.076 243.245 290.604 242.907 291.138C242.581 291.672 242.171 292.166 241.676 292.622C241.194 293.065 240.602 293.429 239.899 293.716C239.196 293.989 238.343 294.126 237.34 294.126C236.038 294.126 234.84 293.859 233.746 293.325C232.666 292.791 231.8 292.049 231.149 291.099C230.498 290.135 230.172 289.028 230.172 287.778C230.172 286.685 230.368 285.708 230.758 284.849C231.162 283.989 231.767 283.26 232.575 282.661C233.382 282.062 234.411 281.606 235.661 281.294C236.911 280.981 238.382 280.825 240.075 280.825H242.907ZM281.666 289.048C282.278 289.048 282.799 288.937 283.229 288.716C283.671 288.481 284.003 288.156 284.225 287.739C284.459 287.31 284.57 286.795 284.557 286.196H290.748C290.761 287.785 290.37 289.178 289.576 290.376C288.795 291.561 287.727 292.485 286.373 293.149C285.032 293.8 283.515 294.126 281.822 294.126C280.169 294.126 278.723 293.859 277.486 293.325C276.249 292.778 275.214 292.023 274.381 291.06C273.561 290.083 272.942 288.944 272.525 287.642C272.122 286.34 271.92 284.927 271.92 283.403V282.954C271.92 281.431 272.122 280.018 272.525 278.716C272.942 277.401 273.561 276.261 274.381 275.298C275.214 274.321 276.243 273.566 277.467 273.032C278.704 272.485 280.143 272.212 281.783 272.212C283.541 272.212 285.09 272.544 286.432 273.208C287.786 273.872 288.847 274.836 289.615 276.099C290.383 277.362 290.761 278.892 290.748 280.688H284.557C284.57 280.05 284.472 279.478 284.264 278.97C284.055 278.462 283.73 278.058 283.287 277.759C282.857 277.446 282.304 277.29 281.627 277.29C280.95 277.29 280.403 277.44 279.986 277.739C279.57 278.039 279.251 278.455 279.029 278.989C278.821 279.51 278.678 280.109 278.6 280.786C278.535 281.463 278.502 282.186 278.502 282.954V283.403C278.502 284.185 278.535 284.92 278.6 285.61C278.678 286.287 278.827 286.886 279.049 287.407C279.27 287.915 279.589 288.319 280.006 288.618C280.423 288.905 280.976 289.048 281.666 289.048ZM305.206 263.735V293.735H298.624V263.735H305.206ZM304.425 282.446L302.882 282.485C302.882 281.001 303.064 279.634 303.429 278.384C303.793 277.134 304.314 276.047 304.991 275.122C305.668 274.198 306.482 273.481 307.432 272.974C308.383 272.466 309.438 272.212 310.596 272.212C311.638 272.212 312.589 272.362 313.448 272.661C314.32 272.961 315.069 273.442 315.694 274.106C316.332 274.771 316.82 275.636 317.159 276.704C317.511 277.772 317.686 279.074 317.686 280.61V293.735H311.065V280.571C311.065 279.712 310.942 279.048 310.694 278.579C310.46 278.097 310.121 277.765 309.679 277.583C309.236 277.388 308.695 277.29 308.057 277.29C307.289 277.29 306.664 277.42 306.182 277.681C305.701 277.941 305.33 278.306 305.069 278.774C304.822 279.23 304.652 279.771 304.561 280.396C304.47 281.021 304.425 281.704 304.425 282.446ZM333.492 272.603V293.735H326.89V272.603H333.492ZM326.5 267.153C326.5 266.216 326.838 265.448 327.515 264.849C328.192 264.25 329.071 263.95 330.152 263.95C331.233 263.95 332.112 264.25 332.789 264.849C333.466 265.448 333.804 266.216 333.804 267.153C333.804 268.091 333.466 268.859 332.789 269.458C332.112 270.057 331.233 270.356 330.152 270.356C329.071 270.356 328.192 270.057 327.515 269.458C326.838 268.859 326.5 268.091 326.5 267.153ZM349.707 263.735V293.735H343.106V263.735H349.707ZM371.118 288.892V263.735H377.739V293.735H371.802L371.118 288.892ZM358.15 283.423V283.013C358.15 281.411 358.325 279.953 358.677 278.638C359.029 277.31 359.549 276.17 360.239 275.22C360.93 274.256 361.789 273.514 362.818 272.993C363.846 272.472 365.031 272.212 366.372 272.212C367.57 272.212 368.618 272.492 369.517 273.052C370.415 273.599 371.183 274.367 371.821 275.356C372.46 276.346 372.98 277.505 373.384 278.833C373.788 280.148 374.094 281.567 374.302 283.091V283.579C374.094 285.011 373.788 286.366 373.384 287.642C372.98 288.905 372.46 290.024 371.821 291.001C371.183 291.978 370.409 292.746 369.497 293.306C368.599 293.853 367.544 294.126 366.333 294.126C364.992 294.126 363.807 293.859 362.779 293.325C361.763 292.791 360.91 292.043 360.22 291.079C359.543 290.116 359.029 288.983 358.677 287.681C358.325 286.379 358.15 284.959 358.15 283.423ZM364.732 283.013V283.423C364.732 284.217 364.784 284.953 364.888 285.63C364.992 286.307 365.168 286.906 365.415 287.427C365.676 287.935 366.014 288.332 366.431 288.618C366.861 288.905 367.388 289.048 368.013 289.048C368.859 289.048 369.556 288.846 370.103 288.442C370.663 288.039 371.073 287.466 371.333 286.724C371.607 285.981 371.724 285.109 371.685 284.106V282.563C371.711 281.704 371.652 280.949 371.509 280.298C371.366 279.634 371.138 279.08 370.825 278.638C370.526 278.195 370.142 277.863 369.673 277.642C369.217 277.407 368.677 277.29 368.052 277.29C367.44 277.29 366.919 277.433 366.489 277.72C366.073 278.006 365.734 278.41 365.474 278.931C365.213 279.438 365.025 280.044 364.907 280.747C364.79 281.437 364.732 282.192 364.732 283.013Z" fill="white"/>
<path d="M824.525 286.54V298.22C824.044 298.754 823.301 299.326 822.299 299.938C821.309 300.537 820.059 301.052 818.549 301.481C817.038 301.911 815.261 302.126 813.217 302.126C811.329 302.126 809.617 301.826 808.08 301.228C806.544 300.616 805.222 299.724 804.115 298.552C803.021 297.367 802.175 295.922 801.576 294.216C800.99 292.497 800.697 290.531 800.697 288.317V286.735C800.697 284.522 800.997 282.556 801.596 280.837C802.195 279.118 803.035 277.673 804.115 276.501C805.209 275.316 806.492 274.418 807.963 273.806C809.447 273.194 811.075 272.888 812.846 272.888C815.463 272.888 817.592 273.304 819.232 274.138C820.873 274.958 822.117 276.097 822.963 277.556C823.809 279.001 824.324 280.674 824.506 282.575H817.924C817.794 281.638 817.546 280.843 817.182 280.192C816.83 279.528 816.322 279.027 815.658 278.688C814.994 278.337 814.135 278.161 813.08 278.161C812.26 278.161 811.511 278.337 810.834 278.688C810.17 279.04 809.604 279.574 809.135 280.29C808.666 280.993 808.301 281.879 808.041 282.946C807.794 284.014 807.67 285.264 807.67 286.696V288.317C807.67 289.737 807.787 290.98 808.021 292.048C808.269 293.116 808.633 294.007 809.115 294.724C809.61 295.427 810.235 295.961 810.99 296.325C811.758 296.677 812.663 296.853 813.705 296.853C814.434 296.853 815.059 296.794 815.58 296.677C816.101 296.547 816.531 296.39 816.869 296.208C817.221 296.013 817.488 295.83 817.67 295.661V291.247H812.904V286.54H824.525ZM840.057 285.837V301.735H833.475V280.603H839.628L840.057 285.837ZM846.307 280.446L846.19 286.56C845.93 286.534 845.578 286.501 845.136 286.462C844.693 286.423 844.322 286.403 844.022 286.403C843.254 286.403 842.59 286.494 842.03 286.677C841.483 286.846 841.027 287.106 840.663 287.458C840.311 287.797 840.051 288.226 839.882 288.747C839.725 289.268 839.654 289.873 839.667 290.563L838.475 289.782C838.475 288.363 838.612 287.074 838.886 285.915C839.172 284.743 839.576 283.734 840.096 282.888C840.617 282.028 841.249 281.371 841.991 280.915C842.733 280.446 843.567 280.212 844.491 280.212C844.817 280.212 845.136 280.231 845.448 280.271C845.774 280.31 846.06 280.368 846.307 280.446ZM852.25 291.384V290.974C852.25 289.424 852.471 287.998 852.914 286.696C853.356 285.381 854.007 284.242 854.867 283.278C855.726 282.315 856.787 281.566 858.05 281.032C859.313 280.485 860.772 280.212 862.425 280.212C864.092 280.212 865.557 280.485 866.82 281.032C868.096 281.566 869.164 282.315 870.023 283.278C870.882 284.242 871.533 285.381 871.976 286.696C872.419 287.998 872.64 289.424 872.64 290.974V291.384C872.64 292.92 872.419 294.346 871.976 295.661C871.533 296.963 870.882 298.103 870.023 299.079C869.164 300.043 868.102 300.791 866.839 301.325C865.576 301.859 864.118 302.126 862.464 302.126C860.811 302.126 859.346 301.859 858.07 301.325C856.794 300.791 855.726 300.043 854.867 299.079C854.007 298.103 853.356 296.963 852.914 295.661C852.471 294.346 852.25 292.92 852.25 291.384ZM858.832 290.974V291.384C858.832 292.178 858.89 292.92 859.007 293.61C859.125 294.3 859.32 294.906 859.593 295.427C859.867 295.935 860.238 296.332 860.707 296.618C861.175 296.905 861.761 297.048 862.464 297.048C863.155 297.048 863.727 296.905 864.183 296.618C864.652 296.332 865.023 295.935 865.296 295.427C865.57 294.906 865.765 294.3 865.882 293.61C866 292.92 866.058 292.178 866.058 291.384V290.974C866.058 290.205 866 289.483 865.882 288.806C865.765 288.116 865.57 287.51 865.296 286.989C865.023 286.455 864.652 286.039 864.183 285.739C863.714 285.44 863.129 285.29 862.425 285.29C861.735 285.29 861.156 285.44 860.687 285.739C860.231 286.039 859.867 286.455 859.593 286.989C859.32 287.51 859.125 288.116 859.007 288.806C858.89 289.483 858.832 290.205 858.832 290.974ZM887.196 295.446L891.102 280.603H895.223L893.758 288.044L889.891 301.735H886.59L887.196 295.446ZM885.653 280.603L888.075 295.329L888.348 301.735H884.344L879.344 280.603H885.653ZM898.7 295.017L901.141 280.603H907.45L902.489 301.735H898.485L898.7 295.017ZM895.692 280.603L899.637 295.407L900.243 301.735H896.903L893.114 288.083L891.707 280.603H895.692ZM942.537 296.599V280.603H949.139V301.735H942.967L942.537 296.599ZM943.162 292.302L944.881 292.263C944.881 293.682 944.712 294.997 944.373 296.208C944.035 297.406 943.533 298.448 942.869 299.333C942.218 300.218 941.411 300.909 940.447 301.403C939.497 301.885 938.396 302.126 937.146 302.126C936.105 302.126 935.148 301.983 934.275 301.696C933.416 301.397 932.674 300.935 932.049 300.31C931.424 299.672 930.936 298.858 930.584 297.868C930.245 296.866 930.076 295.668 930.076 294.274V280.603H936.658V294.313C936.658 294.782 936.717 295.186 936.834 295.524C936.951 295.863 937.12 296.149 937.342 296.384C937.563 296.605 937.837 296.774 938.162 296.892C938.501 296.996 938.885 297.048 939.314 297.048C940.304 297.048 941.079 296.84 941.639 296.423C942.199 296.006 942.589 295.44 942.811 294.724C943.045 294.007 943.162 293.2 943.162 292.302ZM964.612 284.665V309.86H958.03V280.603H964.163L964.612 284.665ZM977.581 290.915V291.325C977.581 292.862 977.405 294.287 977.054 295.603C976.702 296.918 976.181 298.063 975.491 299.04C974.801 300.017 973.942 300.778 972.913 301.325C971.897 301.859 970.719 302.126 969.378 302.126C968.115 302.126 967.027 301.846 966.116 301.286C965.205 300.726 964.443 299.951 963.831 298.962C963.219 297.972 962.724 296.84 962.346 295.563C961.969 294.287 961.669 292.94 961.448 291.521V290.993C961.669 289.47 961.969 288.057 962.346 286.755C962.724 285.44 963.219 284.294 963.831 283.317C964.443 282.341 965.198 281.579 966.096 281.032C967.008 280.485 968.095 280.212 969.358 280.212C970.699 280.212 971.878 280.466 972.893 280.974C973.922 281.481 974.781 282.211 975.471 283.161C976.175 284.099 976.702 285.225 977.054 286.54C977.405 287.855 977.581 289.313 977.581 290.915ZM970.999 291.325V290.915C970.999 290.095 970.94 289.346 970.823 288.669C970.706 287.979 970.517 287.38 970.257 286.872C970.009 286.364 969.677 285.974 969.261 285.7C968.844 285.427 968.33 285.29 967.718 285.29C967.014 285.29 966.422 285.401 965.94 285.622C965.471 285.83 965.094 286.156 964.807 286.599C964.534 287.028 964.339 287.569 964.221 288.22C964.117 288.858 964.072 289.606 964.085 290.466V292.067C964.059 293.057 964.156 293.929 964.378 294.685C964.599 295.427 964.983 296.006 965.53 296.423C966.077 296.84 966.819 297.048 967.757 297.048C968.382 297.048 968.902 296.905 969.319 296.618C969.736 296.319 970.068 295.909 970.315 295.388C970.563 294.854 970.738 294.242 970.843 293.552C970.947 292.862 970.999 292.119 970.999 291.325Z" fill="black"/>
<path d="M1368.82 256.161L1361.08 279.735H1354.85L1365.42 251.298H1369.38L1368.82 256.161ZM1375.24 279.735L1367.49 256.161L1366.87 251.298H1370.87L1381.49 279.735H1375.24ZM1374.89 269.149V273.739H1359.87V269.149H1374.89ZM1388.66 263.114V279.735H1383.04V258.603H1388.31L1388.66 263.114ZM1387.84 268.427H1386.32C1386.32 266.864 1386.52 265.458 1386.92 264.208C1387.33 262.945 1387.89 261.871 1388.62 260.985C1389.35 260.087 1390.22 259.403 1391.22 258.935C1392.24 258.453 1393.37 258.212 1394.62 258.212C1395.61 258.212 1396.51 258.355 1397.33 258.642C1398.15 258.928 1398.86 259.384 1399.44 260.009C1400.04 260.634 1400.5 261.461 1400.81 262.489C1401.14 263.518 1401.3 264.774 1401.3 266.259V279.735H1395.63V266.239C1395.63 265.302 1395.5 264.573 1395.24 264.052C1394.98 263.531 1394.6 263.166 1394.09 262.958C1393.6 262.737 1392.99 262.626 1392.26 262.626C1391.5 262.626 1390.84 262.776 1390.28 263.075C1389.74 263.375 1389.28 263.791 1388.92 264.325C1388.56 264.846 1388.3 265.458 1388.12 266.161C1387.93 266.864 1387.84 267.619 1387.84 268.427ZM1418.06 275.126V249.735H1423.72V279.735H1418.62L1418.06 275.126ZM1404.7 269.423V269.013C1404.7 267.398 1404.88 265.933 1405.24 264.618C1405.61 263.29 1406.14 262.151 1406.85 261.2C1407.55 260.25 1408.41 259.514 1409.44 258.993C1410.47 258.472 1411.64 258.212 1412.96 258.212C1414.2 258.212 1415.28 258.472 1416.2 258.993C1417.14 259.514 1417.93 260.256 1418.58 261.22C1419.25 262.17 1419.78 263.297 1420.19 264.599C1420.59 265.888 1420.88 267.3 1421.06 268.837V269.735C1420.88 271.207 1420.59 272.574 1420.19 273.837C1419.78 275.1 1419.25 276.207 1418.58 277.157C1417.93 278.095 1417.14 278.824 1416.2 279.345C1415.26 279.866 1414.17 280.126 1412.92 280.126C1411.6 280.126 1410.43 279.859 1409.4 279.325C1408.39 278.791 1407.53 278.043 1406.83 277.079C1406.14 276.116 1405.61 274.983 1405.24 273.681C1404.88 272.379 1404.7 270.959 1404.7 269.423ZM1410.32 269.013V269.423C1410.32 270.295 1410.39 271.109 1410.52 271.864C1410.66 272.619 1410.89 273.29 1411.2 273.876C1411.53 274.449 1411.94 274.898 1412.45 275.224C1412.97 275.536 1413.6 275.692 1414.35 275.692C1415.31 275.692 1416.1 275.478 1416.73 275.048C1417.35 274.605 1417.83 274 1418.15 273.231C1418.49 272.463 1418.69 271.578 1418.74 270.575V268.017C1418.7 267.196 1418.58 266.461 1418.39 265.81C1418.21 265.146 1417.93 264.579 1417.57 264.11C1417.22 263.642 1416.77 263.277 1416.24 263.017C1415.72 262.756 1415.1 262.626 1414.38 262.626C1413.66 262.626 1413.03 262.795 1412.51 263.134C1411.99 263.459 1411.57 263.909 1411.24 264.481C1410.93 265.054 1410.69 265.731 1410.54 266.513C1410.39 267.281 1410.32 268.114 1410.32 269.013ZM1445.24 279.735H1439.58V256.728C1439.58 255.126 1439.89 253.778 1440.52 252.685C1441.16 251.578 1442.05 250.744 1443.19 250.185C1444.35 249.612 1445.73 249.325 1447.31 249.325C1447.84 249.325 1448.34 249.364 1448.82 249.442C1449.3 249.507 1449.77 249.592 1450.22 249.696L1450.17 253.935C1449.92 253.869 1449.66 253.824 1449.38 253.798C1449.11 253.772 1448.79 253.759 1448.43 253.759C1447.75 253.759 1447.17 253.876 1446.69 254.11C1446.22 254.332 1445.86 254.664 1445.62 255.106C1445.37 255.549 1445.24 256.09 1445.24 256.728V279.735ZM1449.46 258.603V262.587H1436.44V258.603H1449.46ZM1463.82 274.97V265.556C1463.82 264.879 1463.71 264.299 1463.49 263.817C1463.26 263.323 1462.92 262.938 1462.45 262.665C1462 262.392 1461.4 262.255 1460.67 262.255C1460.05 262.255 1459.51 262.366 1459.05 262.587C1458.6 262.795 1458.25 263.101 1458 263.505C1457.75 263.896 1457.63 264.358 1457.63 264.892H1452C1452 263.993 1452.21 263.14 1452.63 262.333C1453.04 261.526 1453.65 260.816 1454.44 260.204C1455.24 259.579 1456.18 259.091 1457.28 258.739C1458.38 258.388 1459.62 258.212 1460.99 258.212C1462.63 258.212 1464.09 258.485 1465.36 259.032C1466.64 259.579 1467.64 260.399 1468.37 261.493C1469.11 262.587 1469.48 263.954 1469.48 265.595V274.638C1469.48 275.797 1469.55 276.747 1469.7 277.489C1469.84 278.218 1470.05 278.856 1470.32 279.403V279.735H1464.64C1464.37 279.162 1464.16 278.446 1464.01 277.587C1463.88 276.715 1463.82 275.842 1463.82 274.97ZM1464.56 266.864L1464.6 270.048H1461.46C1460.71 270.048 1460.07 270.132 1459.52 270.302C1458.97 270.471 1458.53 270.712 1458.17 271.024C1457.82 271.324 1457.56 271.675 1457.39 272.079C1457.24 272.483 1457.16 272.925 1457.16 273.407C1457.16 273.889 1457.27 274.325 1457.49 274.716C1457.71 275.093 1458.03 275.393 1458.45 275.614C1458.86 275.823 1459.35 275.927 1459.91 275.927C1460.76 275.927 1461.49 275.757 1462.12 275.419C1462.74 275.08 1463.23 274.664 1463.56 274.169C1463.92 273.674 1464.1 273.205 1464.11 272.763L1465.6 275.146C1465.39 275.679 1465.1 276.233 1464.74 276.806C1464.38 277.379 1463.94 277.919 1463.39 278.427C1462.84 278.922 1462.18 279.332 1461.42 279.657C1460.65 279.97 1459.74 280.126 1458.68 280.126C1457.34 280.126 1456.12 279.859 1455.03 279.325C1453.95 278.778 1453.09 278.03 1452.45 277.079C1451.83 276.116 1451.51 275.022 1451.51 273.798C1451.51 272.691 1451.72 271.708 1452.14 270.849C1452.56 269.989 1453.17 269.267 1453.97 268.681C1454.79 268.082 1455.82 267.632 1457.04 267.333C1458.26 267.021 1459.68 266.864 1461.3 266.864H1464.56ZM1486.3 275.126V249.735H1491.96V279.735H1486.87L1486.3 275.126ZM1472.94 269.423V269.013C1472.94 267.398 1473.12 265.933 1473.49 264.618C1473.85 263.29 1474.38 262.151 1475.09 261.2C1475.79 260.25 1476.66 259.514 1477.69 258.993C1478.71 258.472 1479.89 258.212 1481.2 258.212C1482.44 258.212 1483.52 258.472 1484.44 258.993C1485.38 259.514 1486.18 260.256 1486.83 261.22C1487.49 262.17 1488.02 263.297 1488.43 264.599C1488.83 265.888 1489.12 267.3 1489.31 268.837V269.735C1489.12 271.207 1488.83 272.574 1488.43 273.837C1488.02 275.1 1487.49 276.207 1486.83 277.157C1486.18 278.095 1485.38 278.824 1484.44 279.345C1483.51 279.866 1482.41 280.126 1481.16 280.126C1479.85 280.126 1478.68 279.859 1477.65 279.325C1476.63 278.791 1475.77 278.043 1475.07 277.079C1474.38 276.116 1473.85 274.983 1473.49 273.681C1473.12 272.379 1472.94 270.959 1472.94 269.423ZM1478.56 269.013V269.423C1478.56 270.295 1478.63 271.109 1478.76 271.864C1478.9 272.619 1479.13 273.29 1479.44 273.876C1479.77 274.449 1480.19 274.898 1480.69 275.224C1481.21 275.536 1481.85 275.692 1482.59 275.692C1483.55 275.692 1484.35 275.478 1484.97 275.048C1485.6 274.605 1486.07 274 1486.4 273.231C1486.74 272.463 1486.93 271.578 1486.98 270.575V268.017C1486.94 267.196 1486.83 266.461 1486.63 265.81C1486.45 265.146 1486.18 264.579 1485.81 264.11C1485.46 263.642 1485.02 263.277 1484.48 263.017C1483.96 262.756 1483.34 262.626 1482.63 262.626C1481.9 262.626 1481.27 262.795 1480.75 263.134C1480.23 263.459 1479.81 263.909 1479.48 264.481C1479.17 265.054 1478.94 265.731 1478.78 266.513C1478.64 267.281 1478.56 268.114 1478.56 269.013ZM1506.08 280.126C1504.44 280.126 1502.97 279.866 1501.67 279.345C1500.37 278.811 1499.26 278.075 1498.35 277.138C1497.45 276.2 1496.76 275.113 1496.28 273.876C1495.8 272.626 1495.56 271.298 1495.56 269.892V269.11C1495.56 267.509 1495.78 266.044 1496.24 264.716C1496.7 263.388 1497.35 262.235 1498.19 261.259C1499.05 260.282 1500.09 259.534 1501.32 259.013C1502.54 258.479 1503.92 258.212 1505.46 258.212C1506.96 258.212 1508.28 258.459 1509.44 258.954C1510.6 259.449 1511.57 260.152 1512.35 261.063C1513.15 261.975 1513.75 263.069 1514.15 264.345C1514.55 265.608 1514.76 267.014 1514.76 268.563V270.907H1497.96V267.157H1509.23V266.728C1509.23 265.946 1509.09 265.25 1508.8 264.638C1508.53 264.013 1508.11 263.518 1507.55 263.153C1506.99 262.789 1506.27 262.606 1505.4 262.606C1504.66 262.606 1504.02 262.769 1503.49 263.095C1502.95 263.42 1502.52 263.876 1502.18 264.462C1501.85 265.048 1501.6 265.738 1501.44 266.532C1501.28 267.313 1501.2 268.173 1501.2 269.11V269.892C1501.2 270.738 1501.32 271.519 1501.55 272.235C1501.8 272.951 1502.15 273.57 1502.59 274.091C1503.04 274.612 1503.59 275.015 1504.23 275.302C1504.88 275.588 1505.62 275.731 1506.44 275.731C1507.45 275.731 1508.4 275.536 1509.27 275.146C1510.15 274.742 1510.91 274.136 1511.55 273.329L1514.29 276.298C1513.84 276.936 1513.24 277.548 1512.47 278.134C1511.72 278.72 1510.8 279.201 1509.74 279.579C1508.67 279.944 1507.45 280.126 1506.08 280.126ZM1539.33 274.97V265.556C1539.33 264.879 1539.22 264.299 1538.99 263.817C1538.77 263.323 1538.43 262.938 1537.96 262.665C1537.5 262.392 1536.91 262.255 1536.18 262.255C1535.56 262.255 1535.02 262.366 1534.56 262.587C1534.1 262.795 1533.75 263.101 1533.51 263.505C1533.26 263.896 1533.13 264.358 1533.13 264.892H1527.51C1527.51 263.993 1527.72 263.14 1528.13 262.333C1528.55 261.526 1529.16 260.816 1529.95 260.204C1530.75 259.579 1531.69 259.091 1532.78 258.739C1533.89 258.388 1535.13 258.212 1536.49 258.212C1538.13 258.212 1539.59 258.485 1540.87 259.032C1542.15 259.579 1543.15 260.399 1543.88 261.493C1544.62 262.587 1544.99 263.954 1544.99 265.595V274.638C1544.99 275.797 1545.06 276.747 1545.21 277.489C1545.35 278.218 1545.56 278.856 1545.83 279.403V279.735H1540.15C1539.87 279.162 1539.66 278.446 1539.52 277.587C1539.39 276.715 1539.33 275.842 1539.33 274.97ZM1540.07 266.864L1540.11 270.048H1536.96C1536.22 270.048 1535.58 270.132 1535.03 270.302C1534.48 270.471 1534.03 270.712 1533.68 271.024C1533.33 271.324 1533.07 271.675 1532.9 272.079C1532.74 272.483 1532.67 272.925 1532.67 273.407C1532.67 273.889 1532.78 274.325 1533 274.716C1533.22 275.093 1533.54 275.393 1533.96 275.614C1534.37 275.823 1534.86 275.927 1535.42 275.927C1536.27 275.927 1537 275.757 1537.63 275.419C1538.25 275.08 1538.73 274.664 1539.07 274.169C1539.42 273.674 1539.61 273.205 1539.62 272.763L1541.1 275.146C1540.9 275.679 1540.61 276.233 1540.24 276.806C1539.89 277.379 1539.44 277.919 1538.9 278.427C1538.35 278.922 1537.69 279.332 1536.92 279.657C1536.16 279.97 1535.24 280.126 1534.19 280.126C1532.85 280.126 1531.63 279.859 1530.54 279.325C1529.46 278.778 1528.6 278.03 1527.96 277.079C1527.33 276.116 1527.02 275.022 1527.02 273.798C1527.02 272.691 1527.23 271.708 1527.65 270.849C1528.06 269.989 1528.68 269.267 1529.48 268.681C1530.3 268.082 1531.32 267.632 1532.55 267.333C1533.77 267.021 1535.19 266.864 1536.81 266.864H1540.07ZM1555.36 274.267L1559.76 258.603H1563.33L1562.18 264.755L1557.78 279.735H1554.79L1555.36 274.267ZM1553.13 258.603L1556.28 274.247L1556.57 279.735H1553.06L1547.71 258.603H1553.13ZM1567.35 273.993L1570.42 258.603H1575.87L1570.52 279.735H1567.02L1567.35 273.993ZM1563.82 258.603L1568.19 274.149L1568.8 279.735H1565.79L1561.4 264.774L1560.28 258.603H1563.82ZM1590.11 274.97V265.556C1590.11 264.879 1590 264.299 1589.78 263.817C1589.55 263.323 1589.21 262.938 1588.74 262.665C1588.28 262.392 1587.69 262.255 1586.96 262.255C1586.34 262.255 1585.8 262.366 1585.34 262.587C1584.89 262.795 1584.53 263.101 1584.29 263.505C1584.04 263.896 1583.92 264.358 1583.92 264.892H1578.29C1578.29 263.993 1578.5 263.14 1578.92 262.333C1579.33 261.526 1579.94 260.816 1580.73 260.204C1581.53 259.579 1582.47 259.091 1583.56 258.739C1584.67 258.388 1585.91 258.212 1587.28 258.212C1588.92 258.212 1590.37 258.485 1591.65 259.032C1592.93 259.579 1593.93 260.399 1594.66 261.493C1595.4 262.587 1595.77 263.954 1595.77 265.595V274.638C1595.77 275.797 1595.84 276.747 1595.99 277.489C1596.13 278.218 1596.34 278.856 1596.61 279.403V279.735H1590.93C1590.65 279.162 1590.45 278.446 1590.3 277.587C1590.17 276.715 1590.11 275.842 1590.11 274.97ZM1590.85 266.864L1590.89 270.048H1587.74C1587 270.048 1586.36 270.132 1585.81 270.302C1585.26 270.471 1584.81 270.712 1584.46 271.024C1584.11 271.324 1583.85 271.675 1583.68 272.079C1583.53 272.483 1583.45 272.925 1583.45 273.407C1583.45 273.889 1583.56 274.325 1583.78 274.716C1584 275.093 1584.32 275.393 1584.74 275.614C1585.15 275.823 1585.64 275.927 1586.2 275.927C1587.05 275.927 1587.78 275.757 1588.41 275.419C1589.03 275.08 1589.51 274.664 1589.85 274.169C1590.21 273.674 1590.39 273.205 1590.4 272.763L1591.88 275.146C1591.68 275.679 1591.39 276.233 1591.03 276.806C1590.67 277.379 1590.22 277.919 1589.68 278.427C1589.13 278.922 1588.47 279.332 1587.71 279.657C1586.94 279.97 1586.03 280.126 1584.97 280.126C1583.63 280.126 1582.41 279.859 1581.32 279.325C1580.24 278.778 1579.38 278.03 1578.74 277.079C1578.12 276.116 1577.8 275.022 1577.8 273.798C1577.8 272.691 1578.01 271.708 1578.43 270.849C1578.84 269.989 1579.46 269.267 1580.26 268.681C1581.08 268.082 1582.11 267.632 1583.33 267.333C1584.55 267.021 1585.97 266.864 1587.59 266.864H1590.85ZM1606.06 277.353L1611.67 258.603H1617.71L1609.21 282.919C1609.03 283.453 1608.78 284.026 1608.47 284.638C1608.17 285.25 1607.76 285.829 1607.24 286.376C1606.73 286.936 1606.08 287.392 1605.3 287.743C1604.53 288.095 1603.59 288.271 1602.47 288.271C1601.94 288.271 1601.5 288.238 1601.16 288.173C1600.82 288.108 1600.42 288.017 1599.95 287.899V283.778C1600.09 283.778 1600.24 283.778 1600.4 283.778C1600.56 283.791 1600.71 283.798 1600.85 283.798C1601.59 283.798 1602.2 283.713 1602.67 283.544C1603.13 283.375 1603.51 283.114 1603.8 282.763C1604.09 282.424 1604.31 281.981 1604.48 281.435L1606.06 277.353ZM1603.72 258.603L1608.31 273.915L1609.11 279.872L1605.28 280.282L1597.69 258.603H1603.72ZM1635.85 249.735V279.735H1630.21V249.735H1635.85ZM1646.44 258.603V279.735H1640.79V258.603H1646.44ZM1640.44 253.095C1640.44 252.274 1640.73 251.597 1641.3 251.063C1641.87 250.53 1642.64 250.263 1643.6 250.263C1644.55 250.263 1645.32 250.53 1645.89 251.063C1646.47 251.597 1646.77 252.274 1646.77 253.095C1646.77 253.915 1646.47 254.592 1645.89 255.126C1645.32 255.66 1644.55 255.927 1643.6 255.927C1642.64 255.927 1641.87 255.66 1641.3 255.126C1640.73 254.592 1640.44 253.915 1640.44 253.095ZM1656.71 249.716V279.735H1651.08V249.716H1656.71ZM1670.03 258.603L1660.85 269.071L1655.93 274.052L1653.88 269.989L1657.78 265.028L1663.27 258.603H1670.03ZM1664.19 279.735L1657.94 269.97L1661.83 266.571L1670.67 279.735H1664.19ZM1681.79 280.126C1680.15 280.126 1678.68 279.866 1677.37 279.345C1676.07 278.811 1674.96 278.075 1674.05 277.138C1673.15 276.2 1672.46 275.113 1671.98 273.876C1671.5 272.626 1671.26 271.298 1671.26 269.892V269.11C1671.26 267.509 1671.49 266.044 1671.94 264.716C1672.4 263.388 1673.05 262.235 1673.9 261.259C1674.76 260.282 1675.8 259.534 1677.02 259.013C1678.25 258.479 1679.63 258.212 1681.16 258.212C1682.66 258.212 1683.99 258.459 1685.15 258.954C1686.31 259.449 1687.28 260.152 1688.06 261.063C1688.85 261.975 1689.45 263.069 1689.85 264.345C1690.26 265.608 1690.46 267.014 1690.46 268.563V270.907H1673.66V267.157H1684.93V266.728C1684.93 265.946 1684.79 265.25 1684.5 264.638C1684.23 264.013 1683.81 263.518 1683.25 263.153C1682.69 262.789 1681.98 262.606 1681.1 262.606C1680.36 262.606 1679.72 262.769 1679.19 263.095C1678.66 263.42 1678.22 263.876 1677.88 264.462C1677.56 265.048 1677.31 265.738 1677.14 266.532C1676.98 267.313 1676.9 268.173 1676.9 269.11V269.892C1676.9 270.738 1677.02 271.519 1677.26 272.235C1677.5 272.951 1677.85 273.57 1678.29 274.091C1678.75 274.612 1679.29 275.015 1679.93 275.302C1680.58 275.588 1681.32 275.731 1682.14 275.731C1683.15 275.731 1684.1 275.536 1684.97 275.146C1685.86 274.742 1686.62 274.136 1687.26 273.329L1689.99 276.298C1689.55 276.936 1688.94 277.548 1688.17 278.134C1687.42 278.72 1686.51 279.201 1685.44 279.579C1684.37 279.944 1683.15 280.126 1681.79 280.126ZM1410.67 349.126C1409.03 349.126 1407.56 348.866 1406.26 348.345C1404.96 347.811 1403.85 347.075 1402.94 346.138C1402.04 345.2 1401.35 344.113 1400.87 342.876C1400.39 341.626 1400.15 340.298 1400.15 338.892V338.11C1400.15 336.509 1400.37 335.044 1400.83 333.716C1401.29 332.388 1401.94 331.235 1402.78 330.259C1403.64 329.282 1404.68 328.534 1405.91 328.013C1407.13 327.479 1408.51 327.212 1410.05 327.212C1411.55 327.212 1412.87 327.459 1414.03 327.954C1415.19 328.449 1416.16 329.152 1416.94 330.063C1417.74 330.975 1418.34 332.069 1418.74 333.345C1419.14 334.608 1419.35 336.014 1419.35 337.563V339.907H1402.55V336.157H1413.82V335.728C1413.82 334.946 1413.68 334.25 1413.39 333.638C1413.12 333.013 1412.7 332.518 1412.14 332.153C1411.58 331.789 1410.86 331.606 1409.99 331.606C1409.25 331.606 1408.61 331.769 1408.08 332.095C1407.54 332.42 1407.11 332.876 1406.77 333.462C1406.44 334.048 1406.19 334.738 1406.03 335.532C1405.87 336.313 1405.79 337.173 1405.79 338.11V338.892C1405.79 339.738 1405.91 340.519 1406.14 341.235C1406.39 341.951 1406.74 342.57 1407.18 343.091C1407.63 343.612 1408.18 344.015 1408.82 344.302C1409.47 344.588 1410.21 344.731 1411.03 344.731C1412.04 344.731 1412.99 344.536 1413.86 344.146C1414.74 343.742 1415.5 343.136 1416.14 342.329L1418.88 345.298C1418.43 345.936 1417.83 346.548 1417.06 347.134C1416.31 347.72 1415.39 348.201 1414.33 348.579C1413.26 348.944 1412.04 349.126 1410.67 349.126ZM1429.46 344.634L1434.15 327.603H1440.03L1432.9 348.735H1429.35L1429.46 344.634ZM1426.24 327.603L1430.95 344.653L1431.04 348.735H1427.47L1420.34 327.603H1426.24ZM1452 349.126C1450.36 349.126 1448.89 348.866 1447.59 348.345C1446.29 347.811 1445.18 347.075 1444.27 346.138C1443.37 345.2 1442.68 344.113 1442.2 342.876C1441.72 341.626 1441.47 340.298 1441.47 338.892V338.11C1441.47 336.509 1441.7 335.044 1442.16 333.716C1442.61 332.388 1443.26 331.235 1444.11 330.259C1444.97 329.282 1446.01 328.534 1447.24 328.013C1448.46 327.479 1449.84 327.212 1451.38 327.212C1452.87 327.212 1454.2 327.459 1455.36 327.954C1456.52 328.449 1457.49 329.152 1458.27 330.063C1459.07 330.975 1459.66 332.069 1460.07 333.345C1460.47 334.608 1460.67 336.014 1460.67 337.563V339.907H1443.88V336.157H1455.15V335.728C1455.15 334.946 1455 334.25 1454.72 333.638C1454.44 333.013 1454.03 332.518 1453.47 332.153C1452.91 331.789 1452.19 331.606 1451.32 331.606C1450.58 331.606 1449.94 331.769 1449.4 332.095C1448.87 332.42 1448.43 332.876 1448.1 333.462C1447.77 334.048 1447.52 334.738 1447.35 335.532C1447.2 336.313 1447.12 337.173 1447.12 338.11V338.892C1447.12 339.738 1447.24 340.519 1447.47 341.235C1447.72 341.951 1448.06 342.57 1448.51 343.091C1448.96 343.612 1449.51 344.015 1450.15 344.302C1450.8 344.588 1451.53 344.731 1452.35 344.731C1453.37 344.731 1454.31 344.536 1455.19 344.146C1456.07 343.742 1456.83 343.136 1457.47 342.329L1460.21 345.298C1459.76 345.936 1459.16 346.548 1458.39 347.134C1457.63 347.72 1456.72 348.201 1455.65 348.579C1454.59 348.944 1453.37 349.126 1452 349.126ZM1469.5 332.212V348.735H1463.88V327.603H1469.17L1469.5 332.212ZM1475.87 327.466L1475.77 332.681C1475.5 332.642 1475.17 332.609 1474.78 332.583C1474.4 332.544 1474.05 332.524 1473.74 332.524C1472.95 332.524 1472.26 332.629 1471.67 332.837C1471.1 333.032 1470.62 333.325 1470.22 333.716C1469.85 334.106 1469.56 334.582 1469.37 335.142C1469.18 335.701 1469.08 336.34 1469.05 337.056L1467.92 336.704C1467.92 335.337 1468.06 334.08 1468.33 332.935C1468.6 331.776 1469 330.767 1469.52 329.907C1470.06 329.048 1470.71 328.384 1471.47 327.915C1472.24 327.446 1473.12 327.212 1474.11 327.212C1474.42 327.212 1474.74 327.238 1475.07 327.29C1475.39 327.329 1475.66 327.388 1475.87 327.466ZM1485.15 346.353L1490.75 327.603H1496.79L1488.29 351.919C1488.11 352.453 1487.86 353.026 1487.55 353.638C1487.25 354.25 1486.84 354.829 1486.32 355.376C1485.81 355.936 1485.17 356.392 1484.38 356.743C1483.62 357.095 1482.67 357.271 1481.55 357.271C1481.02 357.271 1480.58 357.238 1480.24 357.173C1479.91 357.108 1479.5 357.017 1479.03 356.899V352.778C1479.18 352.778 1479.33 352.778 1479.48 352.778C1479.64 352.791 1479.79 352.798 1479.93 352.798C1480.67 352.798 1481.28 352.713 1481.75 352.544C1482.22 352.375 1482.59 352.114 1482.88 351.763C1483.17 351.424 1483.4 350.981 1483.56 350.435L1485.15 346.353ZM1482.8 327.603L1487.39 342.915L1488.19 348.872L1484.37 349.282L1476.77 327.603H1482.8ZM1497.82 338.384V337.974C1497.82 336.424 1498.04 334.998 1498.49 333.696C1498.93 332.381 1499.57 331.242 1500.42 330.278C1501.27 329.315 1502.31 328.566 1503.54 328.032C1504.78 327.485 1506.2 327.212 1507.8 327.212C1509.4 327.212 1510.83 327.485 1512.08 328.032C1513.33 328.566 1514.38 329.315 1515.22 330.278C1516.08 331.242 1516.74 332.381 1517.18 333.696C1517.62 334.998 1517.84 336.424 1517.84 337.974V338.384C1517.84 339.92 1517.62 341.346 1517.18 342.661C1516.74 343.963 1516.08 345.103 1515.22 346.079C1514.38 347.043 1513.34 347.791 1512.1 348.325C1510.86 348.859 1509.44 349.126 1507.84 349.126C1506.24 349.126 1504.81 348.859 1503.56 348.325C1502.33 347.791 1501.28 347.043 1500.42 346.079C1499.57 345.103 1498.93 343.963 1498.49 342.661C1498.04 341.346 1497.82 339.92 1497.82 338.384ZM1503.45 337.974V338.384C1503.45 339.269 1503.53 340.096 1503.68 340.864C1503.84 341.632 1504.09 342.31 1504.42 342.896C1504.78 343.468 1505.23 343.918 1505.79 344.243C1506.35 344.569 1507.03 344.731 1507.84 344.731C1508.62 344.731 1509.29 344.569 1509.85 344.243C1510.41 343.918 1510.86 343.468 1511.2 342.896C1511.54 342.31 1511.79 341.632 1511.94 340.864C1512.11 340.096 1512.2 339.269 1512.2 338.384V337.974C1512.2 337.114 1512.11 336.307 1511.94 335.552C1511.79 334.784 1511.53 334.106 1511.18 333.521C1510.84 332.922 1510.39 332.453 1509.83 332.114C1509.27 331.776 1508.6 331.606 1507.8 331.606C1507.01 331.606 1506.33 331.776 1505.77 332.114C1505.22 332.453 1504.78 332.922 1504.42 333.521C1504.09 334.106 1503.84 334.784 1503.68 335.552C1503.53 336.307 1503.45 337.114 1503.45 337.974ZM1526.81 332.114V348.735H1521.18V327.603H1526.46L1526.81 332.114ZM1525.99 337.427H1524.46C1524.46 335.864 1524.66 334.458 1525.07 333.208C1525.47 331.945 1526.04 330.871 1526.77 329.985C1527.5 329.087 1528.36 328.403 1529.37 327.935C1530.38 327.453 1531.51 327.212 1532.76 327.212C1533.75 327.212 1534.66 327.355 1535.48 327.642C1536.3 327.928 1537 328.384 1537.59 329.009C1538.19 329.634 1538.64 330.461 1538.96 331.489C1539.28 332.518 1539.44 333.774 1539.44 335.259V348.735H1533.78V335.239C1533.78 334.302 1533.65 333.573 1533.39 333.052C1533.13 332.531 1532.74 332.166 1532.24 331.958C1531.74 331.737 1531.13 331.626 1530.4 331.626C1529.65 331.626 1528.99 331.776 1528.43 332.075C1527.88 332.375 1527.43 332.791 1527.06 333.325C1526.71 333.846 1526.44 334.458 1526.26 335.161C1526.08 335.864 1525.99 336.619 1525.99 337.427ZM1553.45 349.126C1551.81 349.126 1550.34 348.866 1549.03 348.345C1547.73 347.811 1546.62 347.075 1545.71 346.138C1544.81 345.2 1544.12 344.113 1543.64 342.876C1543.16 341.626 1542.92 340.298 1542.92 338.892V338.11C1542.92 336.509 1543.15 335.044 1543.6 333.716C1544.06 332.388 1544.71 331.235 1545.56 330.259C1546.42 329.282 1547.46 328.534 1548.68 328.013C1549.91 327.479 1551.29 327.212 1552.82 327.212C1554.32 327.212 1555.65 327.459 1556.81 327.954C1557.97 328.449 1558.94 329.152 1559.72 330.063C1560.51 330.975 1561.11 332.069 1561.51 333.345C1561.92 334.608 1562.12 336.014 1562.12 337.563V339.907H1545.32V336.157H1556.59V335.728C1556.59 334.946 1556.45 334.25 1556.16 333.638C1555.89 333.013 1555.47 332.518 1554.91 332.153C1554.35 331.789 1553.64 331.606 1552.76 331.606C1552.02 331.606 1551.38 331.769 1550.85 332.095C1550.32 332.42 1549.88 332.876 1549.54 333.462C1549.22 334.048 1548.97 334.738 1548.8 335.532C1548.64 336.313 1548.56 337.173 1548.56 338.11V338.892C1548.56 339.738 1548.68 340.519 1548.92 341.235C1549.16 341.951 1549.51 342.57 1549.95 343.091C1550.41 343.612 1550.95 344.015 1551.59 344.302C1552.24 344.588 1552.98 344.731 1553.8 344.731C1554.81 344.731 1555.76 344.536 1556.63 344.146C1557.52 343.742 1558.28 343.136 1558.92 342.329L1561.65 345.298C1561.21 345.936 1560.6 346.548 1559.83 347.134C1559.08 347.72 1558.17 348.201 1557.1 348.579C1556.03 348.944 1554.81 349.126 1553.45 349.126ZM1585.01 349.126C1583.37 349.126 1581.9 348.866 1580.6 348.345C1579.29 347.811 1578.19 347.075 1577.28 346.138C1576.38 345.2 1575.69 344.113 1575.21 342.876C1574.72 341.626 1574.48 340.298 1574.48 338.892V338.11C1574.48 336.509 1574.71 335.044 1575.17 333.716C1575.62 332.388 1576.27 331.235 1577.12 330.259C1577.98 329.282 1579.02 328.534 1580.24 328.013C1581.47 327.479 1582.85 327.212 1584.38 327.212C1585.88 327.212 1587.21 327.459 1588.37 327.954C1589.53 328.449 1590.5 329.152 1591.28 330.063C1592.07 330.975 1592.67 332.069 1593.08 333.345C1593.48 334.608 1593.68 336.014 1593.68 337.563V339.907H1576.88V336.157H1588.15V335.728C1588.15 334.946 1588.01 334.25 1587.72 333.638C1587.45 333.013 1587.03 332.518 1586.47 332.153C1585.91 331.789 1585.2 331.606 1584.33 331.606C1583.58 331.606 1582.95 331.769 1582.41 332.095C1581.88 332.42 1581.44 332.876 1581.1 333.462C1580.78 334.048 1580.53 334.738 1580.36 335.532C1580.21 336.313 1580.13 337.173 1580.13 338.11V338.892C1580.13 339.738 1580.24 340.519 1580.48 341.235C1580.73 341.951 1581.07 342.57 1581.51 343.091C1581.97 343.612 1582.52 344.015 1583.15 344.302C1583.81 344.588 1584.54 344.731 1585.36 344.731C1586.38 344.731 1587.32 344.536 1588.19 344.146C1589.08 343.742 1589.84 343.136 1590.48 342.329L1593.21 345.298C1592.77 345.936 1592.16 346.548 1591.4 347.134C1590.64 347.72 1589.73 348.201 1588.66 348.579C1587.59 348.944 1586.38 349.126 1585.01 349.126ZM1602.82 318.735V348.735H1597.18V318.735H1602.82ZM1618.9 342.896C1618.9 342.492 1618.78 342.127 1618.54 341.802C1618.31 341.476 1617.87 341.177 1617.24 340.903C1616.61 340.617 1615.71 340.356 1614.52 340.122C1613.45 339.888 1612.46 339.595 1611.53 339.243C1610.62 338.879 1609.83 338.442 1609.15 337.935C1608.49 337.427 1607.97 336.828 1607.59 336.138C1607.21 335.435 1607.02 334.634 1607.02 333.735C1607.02 332.85 1607.21 332.017 1607.59 331.235C1607.98 330.454 1608.53 329.764 1609.25 329.165C1609.98 328.553 1610.86 328.078 1611.9 327.739C1612.96 327.388 1614.14 327.212 1615.46 327.212C1617.29 327.212 1618.87 327.505 1620.19 328.091C1621.51 328.677 1622.53 329.484 1623.23 330.513C1623.95 331.528 1624.31 332.687 1624.31 333.989H1618.68C1618.68 333.442 1618.56 332.954 1618.33 332.524C1618.11 332.082 1617.76 331.737 1617.28 331.489C1616.81 331.229 1616.19 331.099 1615.44 331.099C1614.81 331.099 1614.27 331.209 1613.82 331.431C1613.36 331.639 1613.01 331.925 1612.76 332.29C1612.53 332.642 1612.41 333.032 1612.41 333.462C1612.41 333.787 1612.48 334.08 1612.61 334.341C1612.75 334.588 1612.98 334.816 1613.29 335.024C1613.6 335.233 1614.01 335.428 1614.5 335.61C1615.01 335.78 1615.63 335.936 1616.38 336.079C1617.9 336.392 1619.26 336.802 1620.46 337.31C1621.66 337.804 1622.61 338.481 1623.31 339.341C1624.01 340.187 1624.37 341.3 1624.37 342.681C1624.37 343.618 1624.16 344.478 1623.74 345.259C1623.32 346.04 1622.72 346.724 1621.94 347.31C1621.16 347.882 1620.22 348.332 1619.13 348.657C1618.05 348.97 1616.83 349.126 1615.48 349.126C1613.51 349.126 1611.85 348.774 1610.48 348.071C1609.12 347.368 1608.1 346.476 1607.39 345.396C1606.7 344.302 1606.36 343.182 1606.36 342.036H1611.69C1611.72 342.804 1611.91 343.423 1612.28 343.892C1612.65 344.36 1613.13 344.699 1613.7 344.907C1614.29 345.116 1614.92 345.22 1615.6 345.22C1616.32 345.22 1616.93 345.122 1617.41 344.927C1617.89 344.718 1618.26 344.445 1618.51 344.106C1618.77 343.755 1618.9 343.351 1618.9 342.896ZM1637.74 349.126C1636.1 349.126 1634.63 348.866 1633.33 348.345C1632.03 347.811 1630.92 347.075 1630.01 346.138C1629.11 345.2 1628.42 344.113 1627.94 342.876C1627.46 341.626 1627.22 340.298 1627.22 338.892V338.11C1627.22 336.509 1627.44 335.044 1627.9 333.716C1628.36 332.388 1629.01 331.235 1629.85 330.259C1630.71 329.282 1631.75 328.534 1632.98 328.013C1634.2 327.479 1635.58 327.212 1637.12 327.212C1638.62 327.212 1639.94 327.459 1641.1 327.954C1642.26 328.449 1643.23 329.152 1644.01 330.063C1644.81 330.975 1645.41 332.069 1645.81 333.345C1646.21 334.608 1646.42 336.014 1646.42 337.563V339.907H1629.62V336.157H1640.89V335.728C1640.89 334.946 1640.75 334.25 1640.46 333.638C1640.19 333.013 1639.77 332.518 1639.21 332.153C1638.65 331.789 1637.93 331.606 1637.06 331.606C1636.32 331.606 1635.68 331.769 1635.15 332.095C1634.61 332.42 1634.18 332.876 1633.84 333.462C1633.51 334.048 1633.26 334.738 1633.1 335.532C1632.94 336.313 1632.86 337.173 1632.86 338.11V338.892C1632.86 339.738 1632.98 340.519 1633.21 341.235C1633.46 341.951 1633.81 342.57 1634.25 343.091C1634.7 343.612 1635.25 344.015 1635.89 344.302C1636.54 344.588 1637.28 344.731 1638.1 344.731C1639.11 344.731 1640.06 344.536 1640.93 344.146C1641.81 343.742 1642.57 343.136 1643.21 342.329L1645.95 345.298C1645.5 345.936 1644.9 346.548 1644.13 347.134C1643.38 347.72 1642.46 348.201 1641.4 348.579C1640.33 348.944 1639.11 349.126 1637.74 349.126Z" fill="white"/>
</svg>
