<svg width="5957" height="483" viewBox="0 0 5957 483" fill="none" xmlns="http://www.w3.org/2000/svg">
<path d="M322 322L563.5 461.43V182.57L322 322Z" fill="black"/>
<path d="M1288 322L1529.5 461.43V182.57L1288 322Z" fill="black"/>
<path d="M1771 161L1529.5 300.43V21.5699L1771 161Z" fill="black"/>
<path d="M805 161L563.5 300.43V21.5699L805 161Z" fill="black"/>
<path d="M1288 161L1046.5 300.43V21.5699L1288 161Z" fill="black"/>
<path d="M805 322L1046.5 461.43V182.57L805 322Z" fill="black"/>
<path d="M322 161L563.5 300.43V21.5699L322 161Z" fill="white"/>
<path d="M322 322L80.5 461.43V182.57L322 322Z" fill="white"/>
<path d="M322 161L80.5 300.43V21.5699L322 161Z" fill="black"/>
<path d="M805 322L563.5 461.43V182.57L805 322Z" fill="white"/>
<path d="M1771 322L1529.5 461.43V182.57L1771 322Z" fill="white"/>
<path d="M805 161L1046.5 300.43V21.5699L805 161Z" fill="white"/>
<path d="M1288 161L1529.5 300.43V21.5699L1288 161Z" fill="white"/>
<path d="M1771 161L2012.5 300.43V21.5699L1771 161Z" fill="white"/>
<path d="M1771 322L2012.5 461.43V182.57L1771 322Z" fill="black"/>
<path d="M1288 322L1046.5 461.43V182.57L1288 322Z" fill="white"/>
<path d="M2254 322L2495.5 461.43V182.57L2254 322Z" fill="black"/>
<path d="M3220 322L3461.5 461.43V182.57L3220 322Z" fill="black"/>
<path d="M3703 161L3461.5 300.43V21.5699L3703 161Z" fill="black"/>
<path d="M2737 161L2495.5 300.43V21.5699L2737 161Z" fill="black"/>
<path d="M3220 161L2978.5 300.43V21.5699L3220 161Z" fill="black"/>
<path d="M2737 322L2978.5 461.43V182.57L2737 322Z" fill="black"/>
<path d="M2254 161L2495.5 300.43V21.5699L2254 161Z" fill="white"/>
<path d="M2254 322L2012.5 461.43V182.57L2254 322Z" fill="white"/>
<path d="M2254 161L2012.5 300.43V21.5699L2254 161Z" fill="black"/>
<path d="M2737 322L2495.5 461.43V182.57L2737 322Z" fill="white"/>
<path d="M3703 322L3461.5 461.43V182.57L3703 322Z" fill="white"/>
<path d="M2737 161L2978.5 300.43V21.5699L2737 161Z" fill="white"/>
<path d="M3220 161L3461.5 300.43V21.5699L3220 161Z" fill="white"/>
<path d="M3703 161L3944.5 300.43V21.5699L3703 161Z" fill="white"/>
<path d="M3703 322L3944.5 461.43V182.57L3703 322Z" fill="black"/>
<path d="M3220 322L2978.5 461.43V182.57L3220 322Z" fill="white"/>
<path d="M4186 322L4427.5 461.43V182.57L4186 322Z" fill="black"/>
<path d="M5152 322L5393.5 461.43V182.57L5152 322Z" fill="black"/>
<path d="M5635 161L5393.5 300.43V21.5699L5635 161Z" fill="black"/>
<path d="M4669 161L4427.5 300.43V21.5699L4669 161Z" fill="black"/>
<path d="M5152 161L4910.5 300.43V21.5699L5152 161Z" fill="black"/>
<path d="M4669 322L4910.5 461.43V182.57L4669 322Z" fill="black"/>
<path d="M4186 161L4427.5 300.43V21.5699L4186 161Z" fill="white"/>
<path d="M4186 322L3944.5 461.43V182.57L4186 322Z" fill="white"/>
<path d="M4186 161L3944.5 300.43V21.5699L4186 161Z" fill="black"/>
<path d="M4669 322L4427.5 461.43V182.57L4669 322Z" fill="white"/>
<path d="M5635 322L5393.5 461.43V182.57L5635 322Z" fill="white"/>
<path d="M4669 161L4910.5 300.43V21.5699L4669 161Z" fill="white"/>
<path d="M5152 161L5393.5 300.43V21.5699L5152 161Z" fill="white"/>
<path d="M5635 161L5876.5 300.43V21.5699L5635 161Z" fill="white"/>
<path d="M5635 322L5876.5 461.43V182.57L5635 322Z" fill="black"/>
<path d="M5152 322L4910.5 461.43V182.57L5152 322Z" fill="white"/>
</svg>
