<svg width="1812" height="576" viewBox="0 0 1812 576" fill="none" xmlns="http://www.w3.org/2000/svg">
<rect x="1235.87" width="575.229" height="575.229" rx="37.5" fill="#FF0000"/>
<path d="M1523.34 504.356H1710.57C1717.81 504.356 1723.68 498.486 1723.68 491.244V491.244C1723.68 484.002 1717.81 478.131 1710.57 478.131H1671.66M1523.34 478.131H1671.66M1671.66 478.131V467.766C1671.66 459.482 1664.95 452.766 1656.66 452.766H1653.18M1523.34 452.766H1653.18M1653.18 452.766V182.3C1653.18 180.906 1652.98 179.519 1652.6 178.179L1638.66 129.398C1638.03 127.182 1636.89 125.142 1635.34 123.436L1609.49 94.9551C1608.52 93.8943 1607.41 92.9769 1606.19 92.231L1576.26 73.9792C1573.98 72.5914 1571.38 71.8352 1568.71 71.7884L1523.77 71" stroke="black" stroke-width="11"/>
<path d="M1523.34 504.356H1336.11C1328.87 504.356 1323 498.486 1323 491.244V491.244C1323 484.002 1328.87 478.131 1336.11 478.131H1375.02M1523.34 478.131H1375.02M1375.02 478.131V467.766C1375.02 459.482 1381.74 452.766 1390.02 452.766H1393.51M1523.34 452.766H1393.51M1393.51 452.766V182.3C1393.51 180.906 1393.7 179.519 1394.08 178.179L1408.02 129.398C1408.65 127.182 1409.79 125.142 1411.34 123.436L1437.2 94.9551C1438.16 93.8943 1439.27 92.9769 1440.49 92.231L1470.42 73.9811C1472.7 72.5921 1475.31 71.8358 1477.97 71.7902L1524.2 71" stroke="black" stroke-width="11"/>
<path d="M1523.34 258.014H1534.09V173.75H1589.12V153.114H1534.09V110.552H1523.34" stroke="black" stroke-width="11"/>
<path d="M1523.77 258.014H1513.02V173.75H1457.99V153.114H1513.02V110.552H1523.77" stroke="black" stroke-width="11"/>
<rect width="575.229" height="575.229" rx="37.5" fill="black"/>
<line x1="278.046" y1="348.48" x2="218.091" y2="431.024" stroke="white" stroke-width="20"/>
<line x1="314.732" y1="348.48" x2="254.777" y2="431.024" stroke="white" stroke-width="20"/>
<line x1="316.887" y1="227.958" x2="316.887" y2="328.845" stroke="white" stroke-width="12"/>
<line x1="320.212" y1="224.279" x2="370.826" y2="289.485" stroke="white" stroke-width="12"/>
<line y1="-6" x2="82.544" y2="-6" transform="matrix(-0.613173 0.789949 0.789949 0.613173 278.957 227.958)" stroke="white" stroke-width="12"/>
<line x1="271.029" y1="227.958" x2="271.029" y2="328.845" stroke="white" stroke-width="12"/>
<line x1="258.724" y1="336.603" x2="329.803" y2="336.603" stroke="white" stroke-width="12"/>
<line x1="246.686" y1="221.958" x2="347.573" y2="221.958" stroke="white" stroke-width="12"/>
<line x1="250.928" y1="173.272" x2="287.615" y2="209.958" stroke="white" stroke-width="12"/>
<line x1="301.372" y1="145.757" x2="338.058" y2="182.444" stroke="white" stroke-width="12"/>
<line y1="-6" x2="51.8822" y2="-6" transform="matrix(-0.707107 0.707107 0.707107 0.707107 342.987 177.515)" stroke="white" stroke-width="12"/>
<line y1="-6" x2="51.8822" y2="-6" transform="matrix(-0.707107 0.707107 0.707107 0.707107 292.544 150)" stroke="white" stroke-width="12"/>
<line x1="283.372" y1="169.929" x2="290.25" y2="169.929" stroke="white" stroke-width="6"/>
<line x1="297.129" y1="169.929" x2="304.008" y2="169.929" stroke="white" stroke-width="6"/>
<rect x="617.934" width="575.229" height="575.229" rx="37.5" fill="white"/>
<line x1="867.697" y1="520.139" x2="867.697" y2="303.461" stroke="black" stroke-width="15"/>
<line x1="938.777" y1="520.139" x2="938.777" y2="303.461" stroke="black" stroke-width="15"/>
<line x1="965.766" y1="289.178" x2="845.39" y2="289.178" stroke="black" stroke-width="15"/>
<line x1="876.968" y1="164.741" x2="876.968" y2="281.678" stroke="black" stroke-width="15"/>
<line x1="928.557" y1="164.741" x2="928.557" y2="281.678" stroke="black" stroke-width="15"/>
<line x1="930.164" y1="159.828" x2="1006.76" y2="248.186" stroke="black" stroke-width="15"/>
<line y1="-7.5" x2="116.937" y2="-7.5" transform="matrix(-0.65503 0.755603 0.755603 0.65503 887.597 164.741)" stroke="black" stroke-width="15"/>
<line x1="870.528" y1="82.1968" x2="870.528" y2="161.301" stroke="black" stroke-width="9"/>
<line x1="939.315" y1="82.1968" x2="939.315" y2="161.301" stroke="black" stroke-width="9"/>
<line x1="962.33" y1="69.5" x2="848.832" y2="69.5" stroke="black" stroke-width="9"/>
<line x1="952.012" y1="158.923" x2="859.15" y2="158.923" stroke="black" stroke-width="9"/>
<line x1="886.664" y1="99.8328" x2="893.542" y2="99.8328" stroke="black" stroke-width="6"/>
<line x1="917.618" y1="99.8328" x2="924.497" y2="99.8328" stroke="black" stroke-width="6"/>
</svg>
