<svg width="816" height="2065" viewBox="0 0 816 2065" fill="none" xmlns="http://www.w3.org/2000/svg">
<path d="M381.962 0.137965V202H342.115V46.0723L294.244 61.2915V29.8846L377.673 0.137965H381.962Z" fill="white"/>
<path d="M631.639 419.87V451H493.836V424.436L559.002 354.566C565.55 347.279 570.716 340.868 574.497 335.334C578.279 329.708 581 324.681 582.66 320.253C584.413 315.734 585.289 311.444 585.289 307.386C585.289 301.298 584.275 296.087 582.245 291.752C580.216 287.324 577.218 283.912 573.252 281.513C569.378 279.115 564.582 277.916 558.863 277.916C552.775 277.916 547.518 279.392 543.091 282.344C538.755 285.295 535.435 289.4 533.129 294.657C530.915 299.915 529.808 305.864 529.808 312.505H489.823C489.823 300.514 492.683 289.538 498.401 279.576C504.12 269.522 512.191 261.544 522.614 255.641C533.037 249.645 545.396 246.648 559.693 246.648C573.806 246.648 585.704 248.953 595.389 253.565C605.166 258.085 612.545 264.634 617.526 273.212C622.599 281.698 625.136 291.844 625.136 303.65C625.136 310.292 624.075 316.794 621.954 323.159C619.832 329.431 616.788 335.703 612.822 341.975C608.948 348.155 604.244 354.427 598.71 360.792C593.176 367.156 587.042 373.751 580.308 380.577L545.304 419.87H631.639Z" fill="white"/>
<path d="M249.651 574.982H270.958C277.783 574.982 283.41 573.829 287.837 571.523C292.265 569.125 295.539 565.804 297.66 561.561C299.874 557.226 300.981 552.199 300.981 546.481C300.981 541.315 299.966 536.749 297.937 532.783C296 528.725 293.002 525.589 288.944 523.375C284.886 521.069 279.766 519.916 273.586 519.916C268.698 519.916 264.178 520.885 260.028 522.822C255.877 524.759 252.556 527.48 250.066 530.985C247.575 534.49 246.33 538.733 246.33 543.713H206.345C206.345 532.645 209.297 523.006 215.2 514.797C221.195 506.588 229.22 500.177 239.274 495.565C249.328 490.953 260.396 488.648 272.48 488.648C286.131 488.648 298.076 490.861 308.314 495.289C318.552 499.624 326.531 506.034 332.25 514.52C337.968 523.006 340.828 533.521 340.828 546.065C340.828 552.43 339.352 558.61 336.4 564.605C333.449 570.508 329.206 575.858 323.671 580.655C318.229 585.359 311.588 589.14 303.748 592C295.908 594.767 287.099 596.15 277.322 596.15H249.651V574.982ZM249.651 605.282V584.667H277.322C288.298 584.667 297.937 585.912 306.239 588.403C314.54 590.893 321.504 594.49 327.13 599.194C332.757 603.806 337 609.294 339.859 615.659C342.719 621.931 344.148 628.895 344.148 636.551C344.148 645.959 342.35 654.352 338.752 661.731C335.155 669.018 330.082 675.198 323.533 680.271C317.076 685.344 309.513 689.218 300.843 691.893C292.172 694.476 282.718 695.767 272.48 695.767C263.994 695.767 255.646 694.614 247.437 692.308C239.32 689.91 231.941 686.359 225.3 681.655C218.751 676.858 213.494 670.863 209.527 663.668C205.653 656.382 203.716 647.757 203.716 637.796H243.701C243.701 642.961 244.993 647.573 247.575 651.631C250.158 655.69 253.709 658.872 258.229 661.178C262.841 663.484 267.96 664.637 273.586 664.637C279.951 664.637 285.393 663.484 289.913 661.178C294.524 658.78 298.029 655.459 300.428 651.216C302.918 646.881 304.163 641.854 304.163 636.136C304.163 628.756 302.826 622.853 300.151 618.426C297.476 613.906 293.648 610.586 288.667 608.464C283.686 606.343 277.783 605.282 270.958 605.282H249.651Z" fill="white"/>
<path d="M807.959 682.734V714.003H662.823L660.886 689.79L744.869 556.553H776.552L742.24 613.971L700.456 682.734H807.959ZM785.13 556.553V758H745.284V556.553H785.13Z" fill="white"/>
<path d="M145.33 978.27L113.508 970.66L124.992 868.553H238.167V900.79H157.782L152.801 945.479C155.476 943.911 159.535 942.251 164.977 940.498C170.419 938.654 176.507 937.731 183.24 937.731C193.017 937.731 201.687 939.253 209.251 942.297C216.814 945.341 223.225 949.768 228.482 955.579C233.832 961.39 237.891 968.492 240.658 976.886C243.425 985.28 244.809 994.78 244.809 1005.39C244.809 1014.33 243.425 1022.87 240.658 1030.98C237.891 1039.01 233.694 1046.2 228.067 1052.57C222.441 1058.84 215.385 1063.77 206.899 1067.37C198.413 1070.97 188.359 1072.77 176.737 1072.77C168.067 1072.77 159.673 1071.48 151.556 1068.89C143.532 1066.31 136.291 1062.48 129.834 1057.41C123.47 1052.34 118.351 1046.2 114.477 1039.01C110.695 1031.72 108.712 1023.42 108.527 1014.1H148.097C148.651 1019.82 150.127 1024.76 152.525 1028.91C155.015 1032.97 158.29 1036.1 162.348 1038.32C166.407 1040.53 171.157 1041.64 176.599 1041.64C181.672 1041.64 186.007 1040.67 189.604 1038.73C193.202 1036.79 196.107 1034.12 198.321 1030.71C200.534 1027.2 202.149 1023.14 203.163 1018.53C204.27 1013.83 204.824 1008.75 204.824 1003.31C204.824 997.87 204.178 992.935 202.887 988.508C201.595 984.081 199.612 980.253 196.937 977.024C194.262 973.796 190.85 971.306 186.699 969.553C182.64 967.801 177.89 966.924 172.448 966.924C165.069 966.924 159.35 968.077 155.292 970.383C151.326 972.689 148.005 975.318 145.33 978.27Z" fill="white"/>
<path d="M647.634 990.478H653.445V1022.3H651.093C640.578 1022.3 631.216 1023.87 623.007 1027C614.798 1030.14 607.834 1034.61 602.115 1040.42C596.489 1046.14 592.154 1053.06 589.11 1061.18C586.158 1069.29 584.682 1078.38 584.682 1088.43V1121.92C584.682 1129.11 585.374 1135.48 586.758 1141.01C588.233 1146.45 590.309 1151.02 592.984 1154.71C595.751 1158.3 598.979 1161.03 602.669 1162.87C606.358 1164.62 610.509 1165.5 615.121 1165.5C619.456 1165.5 623.376 1164.58 626.881 1162.73C630.478 1160.89 633.522 1158.3 636.013 1154.98C638.595 1151.57 640.532 1147.6 641.824 1143.08C643.207 1138.47 643.899 1133.45 643.899 1128C643.899 1122.56 643.207 1117.54 641.824 1112.92C640.532 1108.31 638.595 1104.35 636.013 1101.02C633.43 1097.61 630.294 1094.98 626.604 1093.14C622.915 1091.29 618.764 1090.37 614.152 1090.37C607.88 1090.37 602.346 1091.85 597.549 1094.8C592.845 1097.66 589.156 1101.35 586.481 1105.87C583.806 1110.39 582.376 1115.14 582.192 1120.12L570.155 1112.37C570.432 1105.27 571.907 1098.53 574.582 1092.17C577.349 1085.81 581.131 1080.18 585.928 1075.29C590.816 1070.31 596.673 1066.44 603.499 1063.67C610.324 1060.81 618.026 1059.38 626.604 1059.38C636.013 1059.38 644.268 1061.18 651.37 1064.78C658.565 1068.37 664.56 1073.31 669.356 1079.58C674.153 1085.85 677.75 1093.09 680.148 1101.3C682.546 1109.51 683.746 1118.27 683.746 1127.59C683.746 1137.37 682.131 1146.45 678.903 1154.85C675.767 1163.24 671.201 1170.57 665.206 1176.84C659.303 1183.12 652.2 1188 643.899 1191.51C635.597 1195.01 626.281 1196.77 615.951 1196.77C605.251 1196.77 595.52 1194.83 586.758 1190.96C578.087 1186.99 570.616 1181.46 564.344 1174.35C558.072 1167.25 553.229 1158.81 549.816 1149.03C546.496 1139.26 544.836 1128.56 544.836 1116.94V1101.44C544.836 1085.21 547.188 1070.36 551.892 1056.89C556.688 1043.33 563.56 1031.62 572.507 1021.75C581.454 1011.78 592.246 1004.08 604.882 998.641C617.519 993.199 631.77 990.478 647.634 990.478Z" fill="white"/>
<path d="M150.67 1271.55V1293L72.7755 1473H30.7151L108.61 1302.68H8.30139V1271.55H150.67Z" fill="white"/>
<path d="M708.563 1458.8C708.563 1471.43 705.612 1482.09 699.708 1490.76C693.805 1499.33 685.688 1505.84 675.358 1510.26C665.119 1514.6 653.497 1516.77 640.492 1516.77C627.486 1516.77 615.818 1514.6 605.488 1510.26C595.157 1505.84 586.994 1499.33 580.999 1490.76C575.003 1482.09 572.006 1471.43 572.006 1458.8C572.006 1450.31 573.712 1442.65 577.125 1435.83C580.537 1428.91 585.288 1423.01 591.375 1418.12C597.555 1413.14 604.796 1409.36 613.097 1406.77C621.399 1404.1 630.438 1402.76 640.215 1402.76C653.313 1402.76 665.027 1405.07 675.358 1409.68C685.688 1414.29 693.805 1420.79 699.708 1429.19C705.612 1437.58 708.563 1447.45 708.563 1458.8ZM668.44 1456.17C668.44 1449.99 667.241 1444.68 664.843 1440.26C662.537 1435.74 659.262 1432.28 655.019 1429.88C650.776 1427.48 645.842 1426.28 640.215 1426.28C634.589 1426.28 629.654 1427.48 625.411 1429.88C621.168 1432.28 617.848 1435.74 615.449 1440.26C613.143 1444.68 611.991 1449.99 611.991 1456.17C611.991 1462.25 613.143 1467.51 615.449 1471.94C617.848 1476.37 621.168 1479.78 625.411 1482.18C629.746 1484.48 634.773 1485.64 640.492 1485.64C646.211 1485.64 651.145 1484.48 655.296 1482.18C659.539 1479.78 662.767 1476.37 664.981 1471.94C667.287 1467.51 668.44 1462.25 668.44 1456.17ZM704.274 1365.96C704.274 1376.2 701.553 1385.28 696.111 1393.21C690.669 1401.06 683.106 1407.19 673.421 1411.62C663.828 1416.04 652.852 1418.26 640.492 1418.26C628.04 1418.26 616.971 1416.04 607.286 1411.62C597.601 1407.19 590.038 1401.06 584.596 1393.21C579.154 1385.28 576.433 1376.2 576.433 1365.96C576.433 1353.78 579.154 1343.54 584.596 1335.24C590.13 1326.85 597.694 1320.49 607.286 1316.15C616.971 1311.82 627.948 1309.65 640.215 1309.65C652.667 1309.65 663.69 1311.82 673.282 1316.15C682.967 1320.49 690.531 1326.85 695.973 1335.24C701.507 1343.54 704.274 1353.78 704.274 1365.96ZM664.428 1367.76C664.428 1362.32 663.459 1357.61 661.522 1353.64C659.585 1349.59 656.818 1346.45 653.221 1344.24C649.716 1342.02 645.381 1340.92 640.215 1340.92C635.234 1340.92 630.945 1341.98 627.348 1344.1C623.843 1346.22 621.122 1349.31 619.185 1353.37C617.34 1357.33 616.418 1362.13 616.418 1367.76C616.418 1373.2 617.34 1378 619.185 1382.15C621.122 1386.2 623.889 1389.39 627.486 1391.69C631.084 1394 635.419 1395.15 640.492 1395.15C645.565 1395.15 649.854 1394 653.359 1391.69C656.956 1389.39 659.677 1386.2 661.522 1382.15C663.459 1378 664.428 1373.2 664.428 1367.76Z" fill="white"/>
<path d="M309.06 1654.7H311.689C322.758 1654.7 332.258 1653.36 340.191 1650.69C348.215 1647.92 354.81 1643.95 359.976 1638.79C365.141 1633.62 368.969 1627.31 371.459 1619.83C373.95 1612.27 375.195 1603.69 375.195 1594.1V1555.91C375.195 1548.63 374.457 1542.22 372.981 1536.68C371.597 1531.15 369.568 1526.58 366.893 1522.98C364.311 1519.3 361.267 1516.53 357.762 1514.68C354.349 1512.84 350.567 1511.92 346.417 1511.92C341.989 1511.92 338.069 1513.02 334.656 1515.24C331.244 1517.36 328.338 1520.26 325.94 1523.95C323.634 1527.64 321.835 1531.89 320.544 1536.68C319.345 1541.39 318.745 1546.32 318.745 1551.49C318.745 1556.65 319.345 1561.59 320.544 1566.29C321.743 1570.9 323.542 1575.01 325.94 1578.6C328.338 1582.11 331.336 1584.92 334.933 1587.04C338.53 1589.07 342.773 1590.09 347.662 1590.09C352.366 1590.09 356.563 1589.21 360.252 1587.46C364.034 1585.61 367.216 1583.22 369.799 1580.26C372.474 1577.31 374.503 1574.04 375.887 1570.44C377.362 1566.84 378.1 1563.2 378.1 1559.51L391.244 1566.71C391.244 1573.16 389.861 1579.53 387.093 1585.8C384.326 1592.07 380.452 1597.79 375.471 1602.95C370.583 1608.03 364.91 1612.09 358.454 1615.13C351.997 1618.17 345.079 1619.7 337.7 1619.7C328.292 1619.7 319.944 1617.99 312.658 1614.58C305.371 1611.07 299.191 1606.28 294.118 1600.19C289.137 1594.01 285.355 1586.81 282.773 1578.6C280.19 1570.39 278.899 1561.49 278.899 1551.9C278.899 1542.12 280.467 1532.95 283.603 1524.37C286.831 1515.79 291.397 1508.23 297.3 1501.68C303.296 1495.13 310.444 1490.01 318.745 1486.32C327.139 1482.54 336.455 1480.65 346.693 1480.65C356.932 1480.65 366.248 1482.63 374.641 1486.6C383.035 1490.56 390.229 1496.19 396.225 1503.48C402.22 1510.67 406.832 1519.3 410.061 1529.35C413.381 1539.4 415.041 1550.56 415.041 1562.83V1576.67C415.041 1589.76 413.612 1601.94 410.752 1613.19C407.985 1624.45 403.788 1634.64 398.162 1643.77C392.628 1652.81 385.71 1660.56 377.408 1667.01C369.199 1673.47 359.653 1678.41 348.769 1681.82C337.885 1685.23 325.709 1686.94 312.243 1686.94H309.06V1654.7Z" fill="white"/>
<path d="M381.962 1860.14V2062H342.115V1906.07L294.244 1921.29V1889.88L377.673 1860.14H381.962ZM619.968 1943.57V1978.43C619.968 1993.56 618.354 2006.61 615.126 2017.59C611.897 2028.47 607.239 2037.42 601.152 2044.43C595.156 2051.35 588.008 2056.47 579.706 2059.79C571.405 2063.11 562.181 2064.77 552.035 2064.77C543.918 2064.77 536.355 2063.75 529.345 2061.72C522.335 2059.6 516.016 2056.33 510.39 2051.9C504.856 2047.47 500.059 2041.89 496.001 2035.16C492.035 2028.33 488.991 2020.22 486.869 2010.81C484.748 2001.4 483.687 1990.61 483.687 1978.43V1943.57C483.687 1928.44 485.301 1915.48 488.53 1904.69C491.85 1893.8 496.508 1884.9 502.504 1877.99C508.591 1871.07 515.786 1866 524.087 1862.77C532.389 1859.45 541.612 1857.79 551.758 1857.79C559.875 1857.79 567.393 1858.85 574.311 1860.97C581.321 1863 587.639 1866.18 593.265 1870.51C598.892 1874.85 603.688 1880.43 607.654 1887.26C611.621 1893.99 614.664 1902.06 616.786 1911.47C618.907 1920.78 619.968 1931.48 619.968 1943.57ZM579.983 1983.69V1938.17C579.983 1930.88 579.568 1924.52 578.738 1919.08C578 1913.64 576.847 1909.02 575.279 1905.24C573.711 1901.37 571.774 1898.23 569.468 1895.83C567.162 1893.44 564.533 1891.68 561.582 1890.58C558.63 1889.47 555.356 1888.92 551.758 1888.92C547.239 1888.92 543.226 1889.79 539.721 1891.54C536.309 1893.3 533.403 1896.11 531.005 1899.98C528.607 1903.77 526.762 1908.84 525.471 1915.2C524.272 1921.48 523.672 1929.13 523.672 1938.17V1983.69C523.672 1990.98 524.041 1997.39 524.779 2002.92C525.609 2008.46 526.808 2013.21 528.376 2017.17C530.036 2021.05 531.973 2024.23 534.187 2026.72C536.493 2029.12 539.122 2030.87 542.073 2031.98C545.117 2033.08 548.438 2033.64 552.035 2033.64C556.463 2033.64 560.383 2032.76 563.795 2031.01C567.3 2029.16 570.252 2026.3 572.65 2022.43C575.141 2018.46 576.985 2013.3 578.184 2006.93C579.384 2000.57 579.983 1992.82 579.983 1983.69Z" fill="white"/>
</svg>
