<svg width="116" height="1199" viewBox="0 0 116 1199" fill="none" xmlns="http://www.w3.org/2000/svg">
<path d="M114 0.56V27.44C114 36.1867 111.653 42.7467 106.96 47.12C102.267 51.4933 95.3867 53.68 86.32 53.68H29.68C20.6133 53.68 13.7333 51.4933 9.04 47.12C4.34667 42.7467 2 36.1867 2 27.44V0.56H114ZM18 27.12C18 30 18.8533 32.1867 20.56 33.68C22.2667 35.28 25.04 36.08 28.88 36.08H87.12C90.96 36.08 93.7333 35.28 95.44 33.68C97.1467 32.1867 98 30 98 27.12V18.16H18V27.12ZM0.4 91C0.4 82.36 2.85333 75.7467 7.76 71.16C12.6667 66.5733 19.6 64.28 28.56 64.28H87.44C96.4 64.28 103.333 66.5733 108.24 71.16C113.147 75.7467 115.6 82.36 115.6 91C115.6 99.64 113.147 106.253 108.24 110.84C103.333 115.427 96.4 117.72 87.44 117.72H28.56C19.6 117.72 12.6667 115.427 7.76 110.84C2.85333 106.253 0.4 99.64 0.4 91ZM16.4 91C16.4 97.08 20.08 100.12 27.44 100.12H88.56C95.92 100.12 99.6 97.08 99.6 91C99.6 84.92 95.92 81.88 88.56 81.88H27.44C20.08 81.88 16.4 84.92 16.4 91ZM114 155.248V177.328L46.96 194.448V194.768H114V210.448H2V192.368L83.76 171.248V170.928H2V155.248H114ZM0.4 248.969C0.4 240.329 2.85333 233.715 7.76 229.129C12.6667 224.542 19.6 222.249 28.56 222.249H87.44C96.4 222.249 103.333 224.542 108.24 229.129C113.147 233.715 115.6 240.329 115.6 248.969C115.6 257.609 113.147 264.222 108.24 268.809C103.333 273.395 96.4 275.689 87.44 275.689H28.56C19.6 275.689 12.6667 273.395 7.76 268.809C2.85333 264.222 0.4 257.609 0.4 248.969ZM16.4 248.969C16.4 255.049 20.08 258.089 27.44 258.089H88.56C95.92 258.089 99.6 255.049 99.6 248.969C99.6 242.889 95.92 239.849 88.56 239.849H27.44C20.08 239.849 16.4 242.889 16.4 248.969ZM98 300.726V282.326H114V336.726H98V318.326H2V300.726H98ZM114 366.713V383.673L27.92 391.513V391.833L114 400.153V419.353L27.92 427.673V427.993L114 435.833V451.033L2 439.673V417.753L77.52 409.753V409.433L2 401.433V378.073L114 366.713ZM114 471.348V495.188L2 513.428V495.828L24.24 492.628H23.92V472.628L2 469.428V453.108L114 471.348ZM39.12 490.548L94.48 482.708V482.388L39.12 474.707V490.548ZM114 521.966V539.566H2V521.966H114ZM0.4 575.628C0.4 567.094 2.8 560.641 7.6 556.268C12.5067 551.894 19.4933 549.708 28.56 549.708H34.96V566.348H27.28C20.0267 566.348 16.4 569.388 16.4 575.468C16.4 578.454 17.2533 580.694 18.96 582.188C20.7733 583.788 23.6533 584.588 27.6 584.588C32.2933 584.588 36.4 583.521 39.92 581.388C43.5467 579.254 47.8667 575.308 52.88 569.548C59.28 562.294 65.04 557.228 70.16 554.348C75.3867 551.468 81.2533 550.028 87.76 550.028C96.6133 550.028 103.44 552.268 108.24 556.747C113.147 561.228 115.6 567.734 115.6 576.268C115.6 584.694 113.147 591.041 108.24 595.308C103.44 599.681 96.5067 601.868 87.44 601.868H82.8V585.228H88.56C92.4 585.228 95.1733 584.481 96.88 582.988C98.6933 581.494 99.6 579.308 99.6 576.428C99.6 570.561 96.0267 567.628 88.88 567.628C84.8267 567.628 81.04 568.694 77.52 570.828C74 573.068 69.7333 577.068 64.72 582.828C58.32 590.188 52.5067 595.254 47.28 598.028C42.0533 600.801 35.92 602.188 28.88 602.188C19.7067 602.188 12.6667 599.894 7.76 595.308C2.85333 590.828 0.4 584.268 0.4 575.628ZM98 626.039V607.639H114V662.039H98V643.639H2V626.039H98ZM49.68 712.345L114 691.065V709.785L72.88 721.785V722.105L114 734.105V751.225L49.68 729.945H2V712.345H49.68ZM0.4 781.781C0.4 773.141 2.85333 766.528 7.76 761.941C12.6667 757.355 19.6 755.061 28.56 755.061H87.44C96.4 755.061 103.333 757.355 108.24 761.941C113.147 766.528 115.6 773.141 115.6 781.781C115.6 790.421 113.147 797.035 108.24 801.621C103.333 806.208 96.4 808.501 87.44 808.501H28.56C19.6 808.501 12.6667 806.208 7.76 801.621C2.85333 797.035 0.4 790.421 0.4 781.781ZM16.4 781.781C16.4 787.861 20.08 790.901 27.44 790.901H88.56C95.92 790.901 99.6 787.861 99.6 781.781C99.6 775.701 95.92 772.661 88.56 772.661H27.44C20.08 772.661 16.4 775.701 16.4 781.781ZM0.4 846.004C0.4 837.47 2.8 830.964 7.6 826.484C12.5067 822.004 19.4933 819.764 28.56 819.764H114V837.364H27.28C23.44 837.364 20.6667 838.11 18.96 839.604C17.2533 841.204 16.4 843.444 16.4 846.324C16.4 849.204 17.2533 851.39 18.96 852.884C20.6667 854.484 23.44 855.284 27.28 855.284H114V872.244H28.56C19.4933 872.244 12.5067 870.004 7.6 865.524C2.8 861.044 0.4 854.537 0.4 846.004ZM114 884.779V910.859C114 919.925 111.867 926.539 107.6 930.699C103.44 934.859 96.9867 936.939 88.24 936.939H81.36C69.7333 936.939 62.3733 933.099 59.28 925.419H58.96C57.68 929.685 55.0667 932.672 51.12 934.379C47.1733 936.192 41.8933 937.099 35.28 937.099H15.6C12.4 937.099 9.78667 937.205 7.76 937.419C5.84 937.632 3.92 938.165 2 939.019V921.099C3.81333 920.459 5.52 920.032 7.12 919.819C8.72 919.605 11.6 919.499 15.76 919.499H36.24C41.36 919.499 44.9333 918.645 46.96 916.939C48.9867 915.339 50 912.512 50 908.459V902.379H2V884.779H114ZM66 908.779C66 912.299 66.9067 914.912 68.72 916.619C70.5333 918.432 73.5733 919.339 77.84 919.339H86.48C90.5333 919.339 93.4667 918.592 95.28 917.099C97.0933 915.712 98 913.472 98 910.379V902.379H66V908.779ZM98 988.695V970.295H114V1024.7H98V1006.3H2V988.695H98ZM114 1033.22V1050.82H2V1033.22H114ZM114 1064V1089.12L33.84 1100.32V1100.64L114 1111.84V1136.96H2V1120.32H86.8V1120L2 1107.2V1092.48L86.8 1079.68V1079.36H2V1064H114ZM114 1150.09V1198.09H98V1167.69H68.4V1191.85H52.4V1167.69H18V1198.09H2V1150.09H114Z" fill="black"/>
</svg>
